%TF.GenerationSoftware,KiCad,Pcbnew,7.0.8*%
%TF.CreationDate,2023-10-31T13:23:19-04:00*%
%TF.ProjectId,panel2,70616e65-6c32-42e6-9b69-6361645f7063,rev?*%
%TF.SameCoordinates,Original*%
%TF.FileFunction,Profile,NP*%
%FSLAX46Y46*%
G04 Gerber Fmt 4.6, Leading zero omitted, Abs format (unit mm)*
G04 Created by KiCad (PCBNEW 7.0.8) date 2023-10-31 13:23:19*
%MOMM*%
%LPD*%
G01*
G04 APERTURE LIST*
%TA.AperFunction,Profile*%
%ADD10C,0.100000*%
%TD*%
G04 APERTURE END LIST*
D10*
X178060660Y-94189340D02*
G75*
G03*
X176560660Y-92689340I-1499960J40D01*
G01*
X127666286Y-103579340D02*
X124476286Y-103579340D01*
X169103092Y-100539340D02*
X157093092Y-100539340D01*
X157093092Y-110789340D02*
X169103092Y-110789340D01*
X124476286Y-111739340D02*
X127666286Y-111739340D01*
X176560660Y-115389260D02*
G75*
G03*
X178060660Y-113889340I40J1499960D01*
G01*
X157093092Y-100539340D02*
X157093092Y-110789340D01*
X119560660Y-92689260D02*
G75*
G03*
X118060660Y-94189340I40J-1500040D01*
G01*
X130856286Y-111739286D02*
G75*
G03*
X134636286Y-107959340I14J3779986D01*
G01*
X130856286Y-103579340D02*
X127666286Y-103579340D01*
X176560660Y-92689340D02*
X119560660Y-92689340D01*
X120696286Y-107359340D02*
X120696286Y-107959340D01*
X134636286Y-107959340D02*
X134636286Y-107359340D01*
X169103092Y-110789340D02*
X169103092Y-100539340D01*
X134636260Y-107359340D02*
G75*
G03*
X130856286Y-103579340I-3779960J40D01*
G01*
X120696260Y-107959340D02*
G75*
G03*
X124476286Y-111739340I3780040J40D01*
G01*
X178060660Y-113889340D02*
X178060660Y-94189340D01*
X118060660Y-113889340D02*
G75*
G03*
X119560660Y-115389340I1500040J40D01*
G01*
X118060660Y-94189340D02*
X118060660Y-113889340D01*
X124476286Y-103579286D02*
G75*
G03*
X120696286Y-107359340I14J-3780014D01*
G01*
X127666286Y-111739340D02*
X130856286Y-111739340D01*
X119560660Y-115389340D02*
X176560660Y-115389340D01*
M02*
