%TF.GenerationSoftware,KiCad,Pcbnew,8.0.7*%
%TF.CreationDate,2024-12-10T18:46:34-05:00*%
%TF.ProjectId,panel2,70616e65-6c32-42e6-9b69-6361645f7063,rev?*%
%TF.SameCoordinates,Original*%
%TF.FileFunction,Legend,Top*%
%TF.FilePolarity,Positive*%
%FSLAX46Y46*%
G04 Gerber Fmt 4.6, Leading zero omitted, Abs format (unit mm)*
G04 Created by KiCad (PCBNEW 8.0.7) date 2024-12-10 18:46:34*
%MOMM*%
%LPD*%
G01*
G04 APERTURE LIST*
%ADD10C,0.150000*%
G04 APERTURE END LIST*
D10*
X160598092Y-98500057D02*
X160645711Y-98452438D01*
X160645711Y-98452438D02*
X160740949Y-98404819D01*
X160740949Y-98404819D02*
X160979044Y-98404819D01*
X160979044Y-98404819D02*
X161074282Y-98452438D01*
X161074282Y-98452438D02*
X161121901Y-98500057D01*
X161121901Y-98500057D02*
X161169520Y-98595295D01*
X161169520Y-98595295D02*
X161169520Y-98690533D01*
X161169520Y-98690533D02*
X161121901Y-98833390D01*
X161121901Y-98833390D02*
X160550473Y-99404819D01*
X160550473Y-99404819D02*
X161169520Y-99404819D01*
X162026663Y-98738152D02*
X162026663Y-99404819D01*
X161788568Y-98357200D02*
X161550473Y-99071485D01*
X161550473Y-99071485D02*
X162169520Y-99071485D01*
X162407616Y-98404819D02*
X162740949Y-99404819D01*
X162740949Y-99404819D02*
X163074282Y-98404819D01*
X164121902Y-99119104D02*
X164598092Y-99119104D01*
X164026664Y-99404819D02*
X164359997Y-98404819D01*
X164359997Y-98404819D02*
X164693330Y-99404819D01*
X165598092Y-99309580D02*
X165550473Y-99357200D01*
X165550473Y-99357200D02*
X165407616Y-99404819D01*
X165407616Y-99404819D02*
X165312378Y-99404819D01*
X165312378Y-99404819D02*
X165169521Y-99357200D01*
X165169521Y-99357200D02*
X165074283Y-99261961D01*
X165074283Y-99261961D02*
X165026664Y-99166723D01*
X165026664Y-99166723D02*
X164979045Y-98976247D01*
X164979045Y-98976247D02*
X164979045Y-98833390D01*
X164979045Y-98833390D02*
X165026664Y-98642914D01*
X165026664Y-98642914D02*
X165074283Y-98547676D01*
X165074283Y-98547676D02*
X165169521Y-98452438D01*
X165169521Y-98452438D02*
X165312378Y-98404819D01*
X165312378Y-98404819D02*
X165407616Y-98404819D01*
X165407616Y-98404819D02*
X165550473Y-98452438D01*
X165550473Y-98452438D02*
X165598092Y-98500057D01*
M02*
