0
SECTION
2
HEADER
9
$INSUNITS
70
4
9
$ACADVER
1
AC1014
9
$HANDSEED
5
FFFF
0
ENDSEC
0
SECTION
2
TABLES
0
TABLE
2
VPORT
5
8
100
AcDbSymbolTable
0
ENDTAB
0
TABLE
2
LTYPE
5
5
100
AcDbSymbolTable
0
LTYPE
5
14
100
AcDbSymbolTableRecord
100
AcDbLinetypeTableRecord
2
BYBLOCK
70
0
0
LTYPE
5
15
100
AcDbSymbolTableRecord
100
AcDbLinetypeTableRecord
2
BYLAYER
70
0
0
ENDTAB
0
TABLE
2
LAYER
5
2
100
AcDbSymbolTable
70
2
0
LAYER
5
50
100
AcDbSymbolTableRecord
100
AcDbLayerTableRecord
2
0
70
0
6
CONTINUOUS
0
ENDTAB
0
TABLE
2
STYLE
5
3
100
AcDbSymbolTable
70
1
0
STYLE
5
11
100
AcDbSymbolTableRecord
100
AcDbTextStyleTableRecord
2
STANDARD
70
0
0
ENDTAB
0
TABLE
2
VIEW
5
6
100
AcDbSymbolTable
70
0
0
ENDTAB
0
TABLE
2
UCS
5
7
100
AcDbSymbolTable
70
0
0
ENDTAB
0
TABLE
2
APPID
5
9
100
AcDbSymbolTable
70
2
0
APPID
5
12
100
AcDbSymbolTableRecord
100
AcDbRegAppTableRecord
2
ACAD
70
0
0
ENDTAB
0
TABLE
2
DIMSTYLE
5
A
100
AcDbSymbolTable
70
1
0
ENDTAB
0
TABLE
2
BLOCK_RECORD
5
1
100
AcDbSymbolTable
70
1
0
BLOCK_RECORD
5
1F
100
AcDbSymbolTableRecord
100
AcDbBlockTableRecord
2
*MODEL_SPACE
0
BLOCK_RECORD
5
1B
100
AcDbSymbolTableRecord
100
AcDbBlockTableRecord
2
*PAPER_SPACE
0
ENDTAB
0
ENDSEC
0
SECTION
2
BLOCKS
0
BLOCK
5
20
100
AcDbEntity
100
AcDbBlockBegin
2
*MODEL_SPACE
0
ENDBLK
5
21
100
AcDbEntity
100
AcDbBlockEnd
0
BLOCK
5
1C
100
AcDbEntity
100
AcDbBlockBegin
2
*PAPER_SPACE
0
ENDBLK
5
1D
100
AcDbEntity
100
AcDbBlockEnd
0
ENDSEC
0
SECTION
2
ENTITIES
0
ARC
5
100
100
AcDbEntity
8
0
100
AcDbCircle
10
-23.584373999999997
20
-3.9199999999999986
30
0
40
3.7800000000000011
210
2.5475263814645969e-34
220
-3.741167254685191e-50
230
1
100
AcDbArc
50
180
51
270
0
ARC
5
101
100
AcDbEntity
8
0
100
AcDbCircle
10
-23.584373999999997
20
-3.3199999999999981
30
0
40
1.2799999999999998
210
1.1582789720269438e-32
220
-1.2037062152420227e-32
230
1
100
AcDbArc
50
90
51
180
0
LINE
5
102
100
AcDbEntity
8
0
100
AcDbLine
10
-24.864373999999998
20
-3.3199999999999981
30
1.482597084194488e-32
11
-24.864373999999998
21
-3.9199999999999982
31
9.6296497219361793e-34
0
LWPOLYLINE
5
103
100
AcDbEntity
8
0
100
AcDbPolyline
90
4
70
1
43
0.0
10
10.532432000000004
20
2.0000000000000031
10
10.532432
20
-5.2499999999999964
10
19.542432000000002
20
-5.2499999999999964
10
19.542432000000002
20
2.0000000000000027
0
LWPOLYLINE
5
104
100
AcDbEntity
8
0
100
AcDbPolyline
90
8
70
1
43
0.0
10
-28.500000000000018
20
11.349999999999955
42
0.41421356237309465
10
-30.000000000000014
20
9.8499999999999535
10
-29.999999999999982
20
-9.8500000000000458
42
0.41421356237309742
10
-28.499999999999982
20
-11.350000000000044
10
28.500000000000018
20
-11.349999999999955
42
0.41421356237309465
10
30.000000000000014
20
-9.8499999999999535
10
29.999999999999982
20
9.8500000000000458
42
0.41421356237309825
10
28.499999999999979
20
11.350000000000044
0
ARC
5
105
100
AcDbEntity
8
0
100
AcDbCircle
10
-23.584373999999997
20
-3.3199999999999981
30
0
40
3.7800000000000002
210
0
220
-4.0760422103433564e-33
230
1
100
AcDbArc
50
90
51
180
0
LINE
5
106
100
AcDbEntity
8
0
100
AcDbLine
10
-20.394373999999999
20
-2.0399999999999983
30
0
11
-23.584373999999997
21
-2.0399999999999983
31
1.5407439555097887e-32
0
LWPOLYLINE
5
107
100
AcDbEntity
8
0
100
AcDbPolyline
90
4
70
1
43
0.0
10
9.032432
20
-6.7499999999999973
10
21.042431999999998
20
-6.7499999999999973
10
21.042431999999998
20
3.5000000000000018
10
9.0324320000000036
20
3.5000000000000036
0
LINE
5
108
100
AcDbEntity
8
0
100
AcDbLine
10
-13.424373999999997
20
-3.9199999999999906
30
-4.0973793070620986e-32
11
-13.424373999999995
21
-3.3200000000000078
31
-9.6296497219361793e-34
0
LINE
5
109
100
AcDbEntity
8
0
100
AcDbLine
10
-23.584373999999997
20
-7.7000000000000002
30
1.1065623088471308e-31
11
-20.394373999999999
21
-7.6999999999999993
31
0
0
ARC
5
110
100
AcDbEntity
8
0
100
AcDbCircle
10
-23.584373999999997
20
-3.9199999999999986
30
0
40
1.2800000000000011
210
7.5231638452627598e-34
220
2.927413515468599e-32
230
1
100
AcDbArc
50
180
51
270
0
LINE
5
111
100
AcDbEntity
8
0
100
AcDbLine
10
-23.584373999999997
20
-5.1999999999999993
30
3.7470892997998067e-32
11
-20.394373999999999
21
-5.1999999999999993
31
0
0
ARC
5
112
100
AcDbEntity
8
0
100
AcDbCircle
10
-17.204373999999994
20
-3.3199999999999941
30
1.0263416486754031e-47
40
3.7799999999999989
210
2.5475263814646256e-34
220
-9.3529181367130901e-49
230
1
100
AcDbArc
50
0
51
90.000000000000114
0
LINE
5
113
100
AcDbEntity
8
0
100
AcDbLine
10
-20.394373999999999
20
-5.1999999999999975
30
0
11
-17.204373999999994
21
-5.1999999999999993
31
-1.5407439555097887e-32
0
ARC
5
114
100
AcDbEntity
8
0
100
AcDbCircle
10
-17.204373999999994
20
-3.9200000000000026
30
-1.2316099784104838e-46
40
3.7799999999999967
210
-2.3943470429985085e-48
220
-4.076042210343327e-33
230
1
100
AcDbArc
50
-90
51
0
0
LINE
5
115
100
AcDbEntity
8
0
100
AcDbLine
10
-17.204374000000001
20
0.46000000000000485
30
8.1536170125577976e-32
11
-20.394373999999999
21
0.4600000000000018
31
1.5407439555097887e-32
0
ARC
5
116
100
AcDbEntity
8
0
100
AcDbCircle
10
-17.204373999999994
20
-3.9200000000000026
30
-1.2316099784104838e-46
40
1.2799999999999967
210
1.0839627796460594e-32
220
-1.2037062152420179e-32
230
1
100
AcDbArc
50
-90
51
0
0
LINE
5
117
100
AcDbEntity
8
0
100
AcDbLine
10
-17.204373999999994
20
-2.0399999999999974
30
2.7610131682735427e-32
11
-20.394373999999999
21
-2.0399999999999983
31
1.5407439555097887e-32
0
LINE
5
118
100
AcDbEntity
8
0
100
AcDbLine
10
-20.394373999999999
20
0.4600000000000018
30
0
11
-23.584373999999997
21
0.4600000000000018
31
1.5407439555097887e-32
0
LINE
5
119
100
AcDbEntity
8
0
100
AcDbLine
10
-20.394373999999999
20
-7.6999999999999975
30
0
11
-17.204373999999994
21
-7.6999999999999993
31
-1.5407439555097887e-32
0
ARC
5
120
100
AcDbEntity
8
0
100
AcDbCircle
10
-17.204373999999994
20
-3.3199999999999941
30
1.0263416486754031e-47
40
1.2799999999999989
210
7.5231638452619781e-34
220
-2.1570415377137031e-32
230
1
100
AcDbArc
50
0
51
90
0
LINE
5
121
100
AcDbEntity
8
0
100
AcDbLine
10
-27.364373999999998
20
-3.3199999999999981
30
4.3782945142618472e-32
11
-27.364373999999998
21
-3.9199999999999982
31
9.6296497219361793e-34
0
LINE
5
122
100
AcDbEntity
8
0
100
AcDbLine
10
-15.924373999999997
20
-3.9199999999999986
30
-1.3874723579469502e-32
11
-15.924373999999995
21
-3.3199999999999985
31
-9.6296497219361793e-34
0
ENDSEC
0
SECTION
2
OBJECTS
0
DICTIONARY
5
C
100
AcDbDictionary
3
ACAD_GROUP
350
D
3
ACAD_MLINESTYLE
350
17
0
DICTIONARY
5
D
100
AcDbDictionary
0
DICTIONARY
5
1A
330
C
100
AcDbDictionary
0
DICTIONARY
5
17
100
AcDbDictionary
0
ENDSEC
0
EOF
